# xmcd
#
# Track frame offsets:
#	150
#	14215
#	23967
#	40272
#	42642
#	59670
#	77017
#	96230
#	98735
#	107325
#	128892
#
# Disc length: 1976 seconds
#
# Revision: 1
# Processed by: cddbd v1.5.1PL0 Copyright (c) Steve Scherf et al.
# Submitted via: CDex 1.50Beta5
#
DISCID=9307b60b
DTITLE=綺羅 - 夏恋花
DYEAR=1900
DGENRE=
TTITLE0=さくら
TTITLE1=陽だまり
TTITLE2=夏恋花
TTITLE3=雪月花 春
TTITLE4=兆し
TTITLE5=幻
TTITLE6=闇よ闇夜よ
TTITLE7=雪月花 秋
TTITLE8=春の七草 秋の七草 覚え歌
TTITLE9=楽園の雪
TTITLE10=華の世
EXTD=
EXTT0=
EXTT1=
EXTT2=
EXTT3=
EXTT4=
EXTT5=
EXTT6=
EXTT7=
EXTT8=
EXTT9=
EXTT10=
PLAYORDER=
